<svg width="52" height="34" viewBox="0 0 52 34" fill="none" xmlns="http://www.w3.org/2000/svg">
<path d="M25.8724 0.0945273C21.4208 0.651877 17.8677 2.71407 15.3356 6.22538C14.7843 6.98709 14.2942 7.63733 14.2738 7.65591C14.2329 7.69307 13.7429 7.63733 13.1711 7.52586C8.51533 6.727 4.1046 10.7957 4.98266 15.1058C5.18686 16.1091 5.18686 16.1648 4.7172 16.4435C1.83797 18.1341 -0.0202534 21.2924 0.000166606 24.4507C0.0205867 28.7423 2.85897 32.1607 7.61684 33.647C8.67869 33.9814 9.59759 34 25.1781 34C40.2481 34 41.7183 33.9814 42.9231 33.6656C44.9651 33.164 46.9458 32.105 48.4569 30.7488C54.1337 25.5654 52.8064 16.8336 45.7819 13.3037C44.9447 12.895 43.8012 12.4491 43.2294 12.3377L42.188 12.1147L41.8613 10.6099C41.6571 9.66237 41.1874 8.45478 40.5748 7.34008C39.758 5.85381 39.3292 5.31504 37.7364 3.88451C36.2253 2.49113 35.5515 2.04525 34.1425 1.43217C31.4879 0.261732 28.4657 -0.221305 25.8724 0.0945273ZM24.5859 15.273L26.8117 17.2609L29.0375 15.273C31.1407 13.378 31.2837 13.2851 32.1005 13.2851C33.2644 13.2851 34.1629 14.0469 34.1629 15.0687C34.1629 15.7003 33.9587 15.9419 31.9167 17.8183L29.6909 19.8805L31.8146 21.8312C33.0194 22.9459 33.9791 24.0049 34.0608 24.3021C34.4488 25.7141 33.1215 26.9217 31.5696 26.5687C31.2428 26.4944 30.0789 25.6026 28.8537 24.5065L26.6892 22.5743L24.5655 24.525C23.2178 25.7698 22.2376 26.5129 21.8496 26.5872C20.5836 26.8288 19.4605 25.8998 19.4605 24.5994C19.4605 24.0977 19.7872 23.7076 21.6454 21.9984L23.8304 19.9734L21.6454 17.9483C19.5626 15.9976 19.4605 15.8675 19.4605 15.1244C19.4605 13.9911 20.216 13.2851 21.4616 13.2851C22.3193 13.2851 22.4214 13.3595 24.5859 15.273Z" fill="#D21509"/>
</svg>
